#N canvas 274 22 1087 852 10;
#X obj 31 -10 cnv 15 800 40 empty empty SAMPLE_MANIPULATION 20 12 0
14 -33173 -262144 0;
#X obj 37 98 openpanel;
#N canvas 0 22 450 300 (subpatch) 0;
#X array soundfile 231492 float 2;
#X coords 0 1 231492 -1 200 140 1;
#X restore 395 61 graph;
#X obj 37 74 bng 15 250 50 0 empty empty empty 17 7 0 10 -262144 -1
-1;
#X obj 37 143 soundfiler;
#X floatatom 37 170 7 0 0 1 Number_of_samples_in_file - -;
#X obj 159 186 / 44.1;
#X floatatom 159 211 7 0 0 1 Sound_File_length_in_ms - -;
#X msg 714 55 \; pd dsp \$1 \;;
#X obj 714 34 tgl 15 0 empty empty empty 17 7 0 10 -262144 -1 -1 0
1;
#X obj 34 44 cnv 15 150 20 empty empty empty 20 12 0 14 -2867 -262144
0;
#X text 49 44 Open Sound File;
#X obj 31 287 cnv 15 190 20 empty empty empty 20 12 0 14 -2867 -262144
0;
#X obj 36 339 tgl 15 0 empty empty playback_on/off 17 7 0 10 -262144
-1 -1 0 1;
#X obj 36 384 metro;
#X obj 36 426 pack f f f;
#X obj 243 321 hsl 128 15 0 231261 0 0 empty b_sample Beginning_point
-2 -8 0 10 -262144 -1 -1 0 1;
#X obj 251 353 hsl 128 15 0 231261 0 0 empty e_sample End_point -2
-8 0 10 -262144 -1 -1 0 1;
#X floatatom 240 451 7 0 0 0 - - -;
#X msg 37 122 read -resize \$1 soundfile;
#X obj 240 406 expr ($f2 - $f1) / 44.1;
#X obj 248 378 t b f;
#X text 287 451 duration of specified part;
#X msg 36 479 \$1 0 \, \$2 \$3;
#X obj 36 515 vline~;
#X obj 36 541 tabread4~ soundfile;
#X obj 63 359 r \$0-pb-speed;
#X obj 240 559 s \$0-pb-speed;
#X obj 254 483 hsl 128 15 0.01 2 0 0 empty empty playback_speed -2
-8 0 10 -262144 -1 -1 0 1;
#X obj 240 530 *;
#X obj 251 506 t b f;
#X obj 238 287 cnv 15 190 20 empty empty empty 20 12 0 14 -2867 -262144
0;
#X text 38 288 Using [vline~] for playback;
#N canvas 572 203 441 363 volume 0;
#X obj 100 102 vsl 20 50 0 1 0 0 empty empty empty 0 -9 0 10 -262144
-1 -1 0 1;
#X obj 111 213 vline~;
#X msg 111 187 \$1 20;
#X obj 111 237 outlet~;
#X obj 110 25 inlet;
#X connect 0 0 2 0;
#X connect 1 0 3 0;
#X connect 2 0 1 0;
#X connect 4 0 0 0;
#X coords 0 -1 1 1 20 55 2 100 100;
#X restore 78 585 pd volume;
#X obj 36 781 biquad~;
#X obj 238 588 cnv 15 190 20 empty empty empty 20 12 0 14 -2867 -262144
0;
#X text 248 288 Control over sample playback;
#X text 248 589 Settings for [biquad~] filter;
#X obj 252 642 hsl 128 15 30 8000 0 0 empty empty Frequency -2 -8 0
10 -262144 -1 -1 0 1;
#X obj 280 676 hsl 128 15 -20 70 0 0 empty empty Gain -2 -8 0 10 -262144
-1 -1 0 1;
#X obj 336 709 hsl 128 15 0 100 0 0 empty empty Bandwidth -2 -8 0 10
-262144 -1 -1 0 1;
#X obj 249 764 equalizer 5000 70 8;
#X obj 333 732 t b f;
#X obj 277 732 t b f;
#X obj 543 287 cnv 15 190 20 empty empty empty 20 12 0 14 -2867 -262144
0;
#X text 562 287 Audio in;
#X obj 586 320 adc~;
#X obj 622 320 hsl 60 15 0 1 0 0 empty empty empty -2 -8 0 10 -262144
-1 -1 0 1;
#X obj 586 446 tabwrite~ soundfile;
#X msg 603 398 bang;
#X msg 619 422 stop;
#X text 636 397 start recording;
#X text 651 421 stop recording;
#X obj 599 370 s~ \$0-rec2;
#X obj 543 582 cnv 15 190 20 empty empty empty 20 12 0 14 -2867 -262144
0;
#X text 562 582 Recording;
#X msg 508 699 start;
#X msg 548 699 stop;
#X msg 595 633 open record16.wav;
#X obj 595 773 writesf~ 2;
#X obj 632 722 r~ \$0-rec1;
#X obj 652 743 r~ \$0-rec2;
#X msg 602 660 open -bytes 3 record24.wav;
#X msg 609 687 open -bytes 4 record32.wav;
#X text 509 658 start/stop;
#X text 512 674 recording;
#X text 595 793 writes recieved audio to a soundfile;
#X obj 68 808 s~ \$0-rec1;
#X text 670 370 Sends audio to recorder;
#X text 138 813 Sends audio to recorder;
#X obj 240 428 abs;
#X obj 36 641 *~ 1;
#X obj 36 825 output~;
#X obj 586 348 *~ 1;
#X msg 38 234 \; b_sample range 0 \$1 \;;
#X msg 178 234 \; e_sample range 0 \$1 \;;
#X obj 328 243 s e_sample;
#X connect 1 0 19 0;
#X connect 3 0 1 0;
#X connect 4 0 5 0;
#X connect 5 0 6 0;
#X connect 5 0 74 0;
#X connect 5 0 75 0;
#X connect 5 0 76 0;
#X connect 6 0 7 0;
#X connect 9 0 8 0;
#X connect 13 0 14 0;
#X connect 14 0 15 0;
#X connect 15 0 23 0;
#X connect 16 0 20 0;
#X connect 16 0 15 0;
#X connect 17 0 21 0;
#X connect 17 0 15 1;
#X connect 18 0 29 0;
#X connect 19 0 4 0;
#X connect 20 0 70 0;
#X connect 21 0 20 0;
#X connect 21 1 20 1;
#X connect 23 0 24 0;
#X connect 24 0 25 0;
#X connect 25 0 71 0;
#X connect 26 0 14 1;
#X connect 26 0 15 2;
#X connect 28 0 30 0;
#X connect 29 0 27 0;
#X connect 30 0 29 0;
#X connect 30 1 29 1;
#X connect 33 0 71 1;
#X connect 34 0 67 0;
#X connect 34 0 72 0;
#X connect 34 0 72 1;
#X connect 38 0 41 0;
#X connect 39 0 43 0;
#X connect 40 0 42 0;
#X connect 41 0 34 0;
#X connect 42 0 41 0;
#X connect 42 1 41 2;
#X connect 43 0 41 0;
#X connect 43 1 41 1;
#X connect 46 0 73 0;
#X connect 47 0 73 1;
#X connect 49 0 48 0;
#X connect 50 0 48 0;
#X connect 56 0 59 0;
#X connect 57 0 59 0;
#X connect 58 0 59 0;
#X connect 60 0 59 0;
#X connect 60 0 59 1;
#X connect 61 0 59 0;
#X connect 61 0 59 1;
#X connect 62 0 59 0;
#X connect 63 0 59 0;
#X connect 70 0 18 0;
#X connect 71 0 34 0;
#X connect 73 0 48 0;
#X connect 73 0 53 0;
